# xmcd
#
# Track frame offsets:
# 150
# 19061
# 37909
# 51740
# 64046
# 83647
# 96620
# 113610
# 128342
# 147810
# 160102
# 175302
# 195010
# 212541
# 232662
#
# Disc length: 3315 seconds
#
#
# Revision: 0
# Processed by: cddbd v1.5.1PL2 Copyright (c) Steve Scherf et al.
# Submitted via: FreeRIP 2.944 
#
DISCID=b60cf10f
DTITLE=Vários - As Melhores Sertanejas - Vol. 2
DYEAR=1900
DGENRE=
TTITLE0=Laço  aberto - Athaide e Alexandre
TTITLE1=Cara de páu  -Rick e Renner
TTITLE2=A gostosona - Teodoro e Sampáio
TTITLE3=Marcas - Roberta Miranda
TTITLE4=Espelho - Cliton e Camargo
TTITLE5=A garagem da vizinha -Sandro e Gustavo
TTITLE6=Vem ficar comigo - Zezé di Camargo e Luciano
TTITLE7=Gol do coração - Gian e Geovani
TTITLE8=Pare - Zezé di Camargo e Luciano
TTITLE9=Barretezão Ataide e Alexandre
TTITLE10=Na pontinha do pé - Rick e Renner
TTITLE11=Em que mentira - Cleiton e Camargo
TTITLE12=Pele de maçã - Gian e Geovane
TTITLE13=É o amor - Zezé di Camargo e Luciano
TTITLE14=Muleca - Rick e Renner
EXTD=
EXTT0=
EXTT1=
EXTT2=
EXTT3=
EXTT4=
EXTT5=
EXTT6=
EXTT7=
EXTT8=
EXTT9=
EXTT10=
EXTT11=
EXTT12=
EXTT13=
EXTT14=
PLAYORDER=
